<svg width="35" height="35" viewBox="0 0 35 35" fill="none" xmlns="http://www.w3.org/2000/svg">
<path d="M24.4309 5.39493V3.156C24.4309 2.56756 23.9429 2.07959 23.3545 2.07959C22.7661 2.07959 22.2781 2.56756 22.2781 3.156V5.30881L12.9492 5.30881V3.156C12.9492 2.56756 12.4613 2.07959 11.8728 2.07959C11.2844 2.07959 10.7964 2.56756 10.7964 3.156V5.39493C6.92134 5.75373 5.04122 8.06442 4.75418 11.4946C4.72547 11.9108 5.06992 12.2552 5.47178 12.2552L29.7555 12.2552C30.1717 12.2552 30.5162 11.8964 30.4731 11.4946C30.1861 8.06442 28.306 5.75373 24.4309 5.39493Z" fill="#2D87BF"/>
<path d="M29.0953 14.4081L6.13199 14.4081C5.34262 14.4081 4.69678 15.0539 4.69678 15.8433L4.69678 24.6842C4.69678 28.9898 6.84959 31.8602 11.8728 31.8602L18.9484 31.8602C19.9387 31.8602 20.6276 30.8986 20.3119 29.9657C20.0248 29.1333 19.7808 28.2148 19.7808 27.5546C19.7808 23.2059 23.3258 19.6609 27.6745 19.6609C28.0907 19.6609 28.5069 19.6896 28.9088 19.7614C29.7699 19.8906 30.5449 19.216 30.5449 18.3549V15.8576C30.5306 15.0539 29.8847 14.4081 29.0953 14.4081ZM13.6094 25.7032C13.3367 25.9615 12.9636 26.1194 12.5904 26.1194C12.4039 26.1194 12.2173 26.0763 12.0451 26.0045C11.8728 25.9328 11.715 25.8323 11.5714 25.7032C11.3131 25.4305 11.1552 25.0717 11.1552 24.6842C11.1552 24.4976 11.1983 24.311 11.27 24.1388C11.3418 23.9522 11.4423 23.8087 11.5714 23.6652C11.715 23.536 11.8728 23.4355 12.0451 23.3638C12.5617 23.1341 13.2076 23.2633 13.6094 23.6652C13.7386 23.8087 13.8391 23.9522 13.9108 24.1388C13.9826 24.311 14.0256 24.4976 14.0256 24.6842C14.0256 25.0717 13.8678 25.4305 13.6094 25.7032ZM13.6094 20.6799C13.3367 20.9383 12.9636 21.0961 12.5904 21.0961C12.4039 21.0961 12.2173 21.0674 12.0451 20.9813C11.8728 20.9096 11.715 20.8091 11.5714 20.6799C11.3131 20.4072 11.1552 20.0341 11.1552 19.6609C11.1552 19.4743 11.1983 19.2878 11.27 19.1155C11.3418 18.9433 11.4423 18.7854 11.5714 18.6419C11.715 18.5128 11.8728 18.4123 12.0451 18.3405C12.5617 18.1252 13.2076 18.2401 13.6094 18.6419C13.7386 18.7854 13.8391 18.9433 13.9108 19.1155C13.9826 19.2878 14.0256 19.4743 14.0256 19.6609C14.0256 20.0341 13.8678 20.4072 13.6094 20.6799ZM18.9341 20.2063C18.8623 20.3785 18.7618 20.5364 18.6327 20.6799C18.4891 20.8091 18.3313 20.9096 18.159 20.9813C17.9868 21.0674 17.8002 21.0961 17.6137 21.0961C17.2405 21.0961 16.8674 20.9383 16.5947 20.6799C16.4655 20.5364 16.365 20.3785 16.2933 20.2063C16.2215 20.0341 16.1785 19.8475 16.1785 19.6609C16.1785 19.2878 16.3363 18.9146 16.5947 18.6419C16.9965 18.2401 17.628 18.1109 18.159 18.3405C18.3313 18.4123 18.4891 18.5128 18.6327 18.6419C18.891 18.9146 19.0489 19.2878 19.0489 19.6609C19.0489 19.8475 19.0202 20.0341 18.9341 20.2063Z" fill="#2D87BF"/>
<path d="M27.6602 21.8137C24.4883 21.8137 21.9193 24.3828 21.9193 27.5546C21.9193 30.7264 24.4883 33.2954 27.6602 33.2954C30.832 33.2954 33.401 30.7264 33.401 27.5546C33.401 24.3828 30.832 21.8137 27.6602 21.8137ZM29.9565 29.9083C29.7412 30.1236 29.4685 30.2241 29.1958 30.2241C28.9231 30.2241 28.6504 30.1236 28.4352 29.9083L27.6745 29.1477L26.8851 29.937C26.6699 30.1523 26.3972 30.2528 26.1245 30.2528C25.8518 30.2528 25.5791 30.1523 25.3638 29.937C24.9476 29.5208 24.9476 28.8319 25.3638 28.4157L26.1532 27.6263L25.3925 26.8657C24.9763 26.4495 24.9763 25.7606 25.3925 25.3444C25.8087 24.9281 26.4976 24.9281 26.9138 25.3444L27.6745 26.1194L28.3921 25.4018C28.8083 24.9856 29.4972 24.9856 29.9134 25.4018C30.3296 25.818 30.3296 26.5069 29.9134 26.9231L29.1958 27.6407L29.9565 28.4014C30.3727 28.8176 30.3727 29.4921 29.9565 29.9083Z" fill="#2D87BF"/>
</svg>
