<svg width="34" height="35" viewBox="0 0 34 35" fill="none" xmlns="http://www.w3.org/2000/svg">
<path d="M12.1521 32.6125L12.1521 27.3454C12.1521 26.0008 13.25 24.9108 14.6044 24.9108H19.5554C20.2058 24.9108 20.8295 25.1673 21.2894 25.6239C21.7493 26.0805 22.0077 26.6997 22.0077 27.3454V32.6125C22.0036 33.1715 22.2244 33.709 22.6211 34.1057C23.0178 34.5024 23.5577 34.7255 24.1207 34.7255H27.4985C29.0761 34.7296 30.5904 34.1103 31.7073 33.0043C32.8243 31.8984 33.452 30.3967 33.452 28.8306V13.8253C33.452 12.5603 32.8871 11.3603 31.9096 10.5487L20.4191 1.43837C18.4203 -0.15898 15.5564 -0.107406 13.6173 1.56086L2.38895 10.5487C1.36528 11.3364 0.753441 12.5399 0.723206 13.8253L0.723206 28.8153C0.723206 32.0794 3.38868 34.7255 6.6767 34.7255H9.97734C11.1469 34.7255 12.0973 33.7888 12.1058 32.6278L12.1521 32.6125Z" fill="#008981"/>
</svg>
