<svg width="36" height="35" viewBox="0 0 36 35" fill="none" xmlns="http://www.w3.org/2000/svg">
<path d="M24.9606 5.83701L10.6059 5.83701C6.29948 5.83701 3.42853 7.99022 3.42853 13.0144L3.42853 18.1247C3.42853 18.6558 3.97401 18.986 4.44771 18.7706C5.85448 18.1247 7.47656 17.8806 9.18478 18.1821C12.9601 18.8568 15.7305 22.3593 15.6301 26.192C15.6157 26.7949 15.5296 27.3835 15.3717 27.9577C15.2568 28.4027 15.6157 28.8189 16.0751 28.8189H24.9606C29.2671 28.8189 32.138 26.6657 32.138 21.6416V13.0144C32.138 7.99022 29.2671 5.83701 24.9606 5.83701ZM17.7833 20.9095C15.8023 20.9095 14.1946 19.3018 14.1946 17.3208C14.1946 15.3398 15.8023 13.7321 17.7833 13.7321C19.7642 13.7321 21.3719 15.3398 21.3719 17.3208C21.3719 19.3018 19.7642 20.9095 17.7833 20.9095ZM28.1904 20.1918C28.1904 20.7803 27.7024 21.2684 27.1138 21.2684C26.5253 21.2684 26.0372 20.7803 26.0372 20.1918V14.4499C26.0372 13.8613 26.5253 13.3733 27.1138 13.3733C27.7024 13.3733 28.1904 13.8613 28.1904 14.4499V20.1918Z" fill="white"/>
<path d="M7.73413 20.1919C4.56231 20.1919 1.99329 22.761 1.99329 25.9328C1.99329 27.0092 2.29468 28.0282 2.82571 28.8893C3.816 30.5542 5.63872 31.6736 7.73413 31.6736C9.82953 31.6736 11.6522 30.5542 12.6425 28.8893C13.1736 28.0282 13.475 27.0092 13.475 25.9328C13.475 22.761 10.9059 20.1919 7.73413 20.1919ZM9.87259 26.9805H8.81053V28.0999C8.81053 28.6884 8.32256 29.1764 7.73413 29.1764C7.14569 29.1764 6.65772 28.6884 6.65772 28.0999V26.9805H5.59566C5.00723 26.9805 4.51926 26.4925 4.51926 25.9041C4.51926 25.3156 5.00723 24.8277 5.59566 24.8277H6.65772V23.8087C6.65772 23.2202 7.14569 22.7323 7.73413 22.7323C8.32256 22.7323 8.81053 23.2202 8.81053 23.8087V24.8277H9.87259C10.461 24.8277 10.949 25.3156 10.949 25.9041C10.949 26.4925 10.4754 26.9805 9.87259 26.9805Z" fill="white"/>
</svg>
