<svg width="59" height="58" viewBox="0 0 59 58" fill="none" xmlns="http://www.w3.org/2000/svg">
<path d="M47.1909 36.2736L44.7648 32.6292C44.2553 31.8169 43.7943 30.2801 43.7943 29.38V23.8255C43.7943 18.6663 40.4463 14.2095 35.6184 12.1239C34.3568 10.1041 32.0277 8.85269 29.359 8.85269C26.7146 8.85269 24.337 10.148 23.0754 12.1897C18.3445 14.3193 15.0693 18.7321 15.0693 23.8255L15.0693 29.38C15.0693 30.2801 14.6083 31.8169 14.0988 32.6072L11.6485 36.2736C10.678 37.7446 10.4597 39.3692 11.0662 40.8621C11.6485 42.333 13.0314 43.4746 14.8267 44.0235C19.5333 45.4725 24.4826 46.175 29.4318 46.175C34.3811 46.175 39.3303 45.4725 44.037 44.0454C45.7352 43.5405 47.0453 42.3769 47.6761 40.8621C48.3069 39.3472 48.1371 37.6787 47.1909 36.2736Z" fill="#2D87BF"/>
<path d="M36.1593 48.1147C35.1547 50.8894 32.4995 52.8748 29.3899 52.8748C27.5002 52.8748 25.6344 52.1094 24.3188 50.7459C23.5534 50.0283 22.9793 49.0715 22.6444 48.0908C22.9554 48.1386 23.2663 48.1625 23.6012 48.2104C24.1514 48.2821 24.7255 48.3539 25.2995 48.4017C26.663 48.5213 28.0504 48.5931 29.4377 48.5931C30.8012 48.5931 32.1646 48.5213 33.5042 48.4017C34.0065 48.3539 34.5088 48.33 34.9872 48.2582C35.3699 48.2104 35.7527 48.1625 36.1593 48.1147Z" fill="#2D87BF"/>
</svg>
